<?xml version="1.0" encoding="iso-8859-1"?>
<!-- Generator: Adobe Illustrator 21.0.0, SVG Export Plug-In . SVG Version: 6.00 Build 0)  -->
<svg version="1.1" id="Capa_1" xmlns="http://www.w3.org/2000/svg" xmlns:xlink="http://www.w3.org/1999/xlink" x="0px" y="0px"
	 viewBox="0 0 602.674 602.674" style="enable-background:new 0 0 602.674 602.674;" xml:space="preserve">
<g>
	<g>
		<g>
			<g id="filled_outline_22_">
				<rect x="251.114" y="291.294" style="fill:#FEC9A3;" width="100.445" height="80.356"/>
				<path style="fill:#F7BB8F;" d="M251.114,291.294v37.165c31.228,17.357,69.217,17.357,100.445,0v-37.165H251.114z"/>
				<path style="fill:#F7BB8F;" d="M150.669,170.76c0,16.644,13.49,30.134,30.134,30.134h20.089v-60.267h-20.089
					C164.159,140.626,150.669,154.126,150.669,170.76z"/>
				<path style="fill:#F7BB8F;" d="M421.871,140.626h-20.089v60.267h20.089c16.644,0,30.134-13.49,30.134-30.134
					S438.515,140.626,421.871,140.626z"/>
				<path style="fill:#FEC9A3;" d="M371.649,80.359H220.981c-4.932-0.03-9.824-0.964-14.414-2.772
					c-8.528,16.302-12.686,34.543-12.053,52.935l3.013,90.521c1.949,57.324,50.002,102.203,107.326,100.254
					c54.582-1.858,98.396-45.672,100.254-100.254l2.732-82.004l-7.805-3.124C381.693,120.537,371.649,110.492,371.649,80.359z"/>
				<path style="fill:#613A26;" d="M232.773,101.091l8.297-20.732h-20.089c-4.932-0.03-9.824-0.964-14.414-2.772
					c-8.528,16.302-12.686,34.543-12.053,52.935l0.291,8.538C212.112,132.108,225.822,118.397,232.773,101.091z"/>
				<path style="fill:#75462E;" d="M407.859,140.626l-7.805-4.711c-18.361-15.378-28.406-25.423-28.406-55.556H220.981
					c-22.188,0-40.178-17.99-40.178-40.178V10.047l50.223,10.045H351.56c33.288,0,60.267,26.98,60.267,60.267L407.859,140.626z"/>
				<path style="fill:#DADDDF;" d="M421.871,371.65H180.803c-44.377,0-80.356,35.979-80.356,80.356v150.668h401.781V452.006
					C502.228,407.63,466.248,371.65,421.871,371.65z"/>
				<path style="fill:#4398D1;" d="M421.871,371.65h-49.821l-70.713,220.98l-70.713-220.98h-49.821
					c-44.377,0-80.356,35.979-80.356,80.356v150.668h401.781V452.006C502.228,407.63,466.248,371.65,421.871,371.65z"/>
				<polygon style="fill:#2E6394;" points="271.204,371.65 291.293,411.828 311.382,411.828 331.471,371.65 				"/>
				<polygon style="fill:#387EB3;" points="301.337,592.63 231.025,371.65 210.936,371.65 180.803,431.917 220.981,452.006 
					210.936,502.229 				"/>
				<polygon style="fill:#387EB3;" points="421.871,431.917 391.738,371.65 371.649,371.65 301.337,592.63 391.738,502.229 
					381.693,452.006 				"/>
				<polygon style="fill:#2E6394;" points="291.293,411.828 271.766,499.698 301.337,592.63 330.908,499.698 311.382,411.828 				
					"/>
				<path d="M110.491,452.006c0.04-38.812,31.5-70.271,70.312-70.312h13.882l-22.871,45.733c-2.481,4.962-0.472,10.999,4.49,13.48
					c0,0,0,0,0.01,0l33.318,16.654l-8.538,42.659c-0.653,3.285,0.382,6.67,2.742,9.04l90.401,90.401
					c0.151,0.151,0.352,0.201,0.502,0.331c0.341,0.321,0.693,0.613,1.075,0.884c0.1,0.09,0.201,0.181,0.301,0.261
					c0.321,0.161,0.663,0.301,1.004,0.422c0.251,0.121,0.472,0.261,0.733,0.362l0.573,0.211c0.934,0.321,1.918,0.502,2.913,0.542
					l0,0c0.994-0.01,1.989-0.171,2.933-0.472l0.573-0.211c0.261-0.1,0.482-0.241,0.733-0.362c0.342-0.121,0.683-0.261,1.004-0.422
					c0.1-0.08,0.201-0.171,0.301-0.261c0.382-0.271,0.733-0.563,1.075-0.884c0.151-0.131,0.352-0.181,0.502-0.331l57.304-57.324
					h56.109v60.267h20.089V482.14h-20.089v40.178h-36.02l12.988-12.988c2.36-2.37,3.395-5.756,2.742-9.04l-8.538-42.699
					l33.318-16.634c4.962-2.481,6.981-8.508,4.5-13.47c0,0,0,0,0-0.01l-22.871-45.783h13.882c38.812,0.04,70.271,31.5,70.312,70.312
					v150.668h20.089V452.006c-0.06-49.901-40.5-90.34-90.401-90.401h-60.267v-47.31c32.303-20.039,52.422-54.923,53.567-92.922
					l0.342-10.436h6.358c22.188,0,40.178-17.99,40.178-40.178s-17.99-40.178-40.178-40.178V80.359
					c-0.04-38.812-31.5-70.272-70.312-70.312H232.03l-49.218-9.844c-5.434-1.105-10.738,2.401-11.853,7.835
					c-0.131,0.663-0.201,1.336-0.201,2.009v30.134c0.02,16.955,8.608,32.755,22.821,41.996c-6.418,15.308-9.502,31.811-9.04,48.405
					h-3.737c-22.188,0-40.178,17.99-40.178,40.178s17.99,40.178,40.178,40.178h6.358l0.342,10.436
					c1.145,37.998,21.264,72.883,53.567,92.922v47.31h-60.267c-49.901,0.06-90.34,40.5-90.401,90.401v150.668h20.089V452.006z
					 M264.996,381.695l15.72,31.439l-10.667,48.013l-25.282-79.452H264.996z M357.908,381.695l-25.282,79.452l-10.667-48.013
					l15.72-31.439H357.908z M299.328,421.873h4.018l17.186,77.343l-19.195,60.267l-19.175-60.267L299.328,421.873z M305.154,401.784
					h-7.674l-10.045-20.089h27.763L305.154,401.784z M385.51,381.695l22.861,45.733l-31.188,15.589
					c-4.058,2.039-6.248,6.549-5.334,10.999l8.99,44.949l-57.405,57.374l55.556-174.644H385.51z M441.96,170.76
					c0,11.099-8.99,20.089-20.089,20.089h-5.685l1.336-40.178h4.349C432.971,150.67,441.96,159.67,441.96,170.76z M190.847,22.301
					l38.169,7.634c0.663,0.141,1.336,0.211,2.009,0.201H351.56c27.723,0.03,50.193,22.5,50.223,50.223v43.814l-1.004-0.854
					c-0.763-0.673-1.487-1.336-2.2-2.009c-0.954-0.874-1.868-1.738-2.732-2.602c-0.663-0.653-1.306-1.306-1.919-2.009
					c-0.794-0.844-1.527-1.698-2.24-2.551c-0.552-0.663-1.095-1.326-1.597-2.009c-0.653-0.874-1.236-1.788-1.808-2.702
					c-0.432-0.693-0.884-1.396-1.276-2.119c-0.512-1.004-1.004-2.009-1.406-3.013c-0.321-0.763-0.663-1.497-0.944-2.31
					c-0.402-1.145-0.713-2.401-1.004-3.656c-0.211-0.824-0.452-1.587-0.623-2.461c-0.291-1.477-0.482-3.124-0.683-4.771
					c-0.09-0.804-0.231-1.527-0.301-2.381c-0.231-2.531-0.352-5.354-0.352-8.367c0-5.545-4.5-10.045-10.045-10.045H220.981
					c-1.828-0.02-3.656-0.201-5.454-0.552c-1.818-0.362-3.606-0.884-5.334-1.547h-0.131c-11.561-4.49-19.195-15.619-19.215-28.034
					V22.301z M226.234,90.403l-2.782,6.951l0,0c-3.917,9.723-10.376,18.201-18.713,24.559c0-0.412,0-0.824,0-1.235
					c0.06-1.004,0.181-1.959,0.271-2.933c0.221-2.23,0.492-4.45,0.864-6.649c0.181-1.075,0.372-2.15,0.593-3.224
					c0.442-2.2,1.004-4.379,1.567-6.539c0.251-0.934,0.482-1.868,0.763-2.802c0.934-3.013,2.009-6.027,3.204-8.97
					c2.963,0.562,5.966,0.844,8.98,0.844H226.234z M180.803,190.849c-11.099,0-20.089-8.99-20.089-20.089s8.99-20.089,20.089-20.089
					h4.349l1.336,40.178H180.803z M207.592,220.701l-2.521-75.334c16.794-8.638,29.933-23.032,37.004-40.54l5.796-14.424h114.136
					c2.23,26.648,13.781,38.29,31.6,53.236c0.814,0.683,1.738,1.235,2.722,1.627l1.266,0.502l-2.511,74.952
					c-1.698,51.769-45.04,92.369-96.819,90.672c-49.389-1.617-89.055-41.283-90.672-90.672V220.701z M261.159,324.149
					c25.895,9.763,54.461,9.763,80.356,0v37.456h-80.356V324.149z M223.683,381.695l55.556,174.644l-57.415-57.414l9-44.909
					c0.894-4.44-1.306-8.93-5.354-10.959l-31.188-15.589l22.861-45.773H223.683z"/>
				<rect x="160.714" y="482.14" width="20.089" height="120.534"/>
				<path d="M311.382,220.982v-20.089H295.18l15.69-47.049l-19.085-6.348l-20.089,60.267c-1.758,5.263,1.095,10.949,6.358,12.706
					c1.035,0.342,2.109,0.522,3.194,0.512H311.382z"/>
				<path d="M334.414,223.925c-10.959,11.019-25.865,17.196-41.404,17.146h-11.762v20.089h11.762
					c20.873,0.06,40.891-8.236,55.607-23.032L334.414,223.925z"/>
				<circle cx="241.07" cy="170.76" r="20.089"/>
				<circle cx="361.604" cy="170.76" r="20.089"/>
			</g>
		</g>
	</g>
</g>
<g>
</g>
<g>
</g>
<g>
</g>
<g>
</g>
<g>
</g>
<g>
</g>
<g>
</g>
<g>
</g>
<g>
</g>
<g>
</g>
<g>
</g>
<g>
</g>
<g>
</g>
<g>
</g>
<g>
</g>
</svg>
