<svg xmlns="http://www.w3.org/2000/svg" viewBox="0 0 128 128"><path fill="#fff" d="M114,111V41c0-5.5-4.5-10-10-10H24c-5.5,0-10,4.5-10,10v70H4v3c0,5.5,4.5,10,10,10h100c5.5,0,10-4.5,10-10v-3H114z"></path><path fill="#71c2ff" d="M79.1 85.1c-.8 0-1.6-.3-2.2-1-1.1-1.2-1-3.1.2-4.2l6.6-5.8-6.6-5.8c-1.2-1.1-1.3-3-.2-4.2 1.1-1.2 3-1.3 4.2-.2l9.1 8.1c.6.6 1 1.4 1 2.2s-.4 1.7-1 2.2l-9.1 8.1C80.6 84.8 79.9 85.1 79.1 85.1zM48.9 85.1c-.7 0-1.4-.2-2-.8l-9.1-8.1c-.6-.6-1-1.4-1-2.2s.4-1.7 1-2.2l9.1-8.1c1.2-1.1 3.1-1 4.2.2 1.1 1.2 1 3.1-.2 4.2L44.3 74l6.6 5.8c1.2 1.1 1.3 3 .2 4.2C50.5 84.7 49.7 85.1 48.9 85.1zM59 92c-.3 0-.6 0-.9-.2-1.6-.5-2.4-2.2-1.9-3.8l10-30c.5-1.6 2.2-2.4 3.8-1.9 1.6.5 2.4 2.2 1.9 3.8l-10 30C61.4 91.2 60.3 92 59 92z"></path><path fill="#444b54" d="M74,114H54c-1.7,0-3-1.3-3-3s1.3-3,3-3h20c1.7,0,3,1.3,3,3S75.7,114,74,114z"></path><g><path fill="#444b54" d="M114,127H14c-7.2,0-13-5.8-13-13v-3c0-1.7,1.3-3,3-3h35c1.7,0,3,1.3,3,3s-1.3,3-3,3H7c0,3.9,3.1,7,7,7h100c3.9,0,7-3.1,7-7H89c-1.7,0-3-1.3-3-3s1.3-3,3-3h35c1.7,0,3,1.3,3,3v3C127,121.2,121.2,127,114,127z"></path></g><g><path fill="#444b54" d="M114,103c-1.7,0-3-1.3-3-3V41c0-3.9-3.1-7-7-7H24c-3.9,0-7,3.1-7,7v59c0,1.7-1.3,3-3,3s-3-1.3-3-3V41c0-7.2,5.8-13,13-13h80c7.2,0,13,5.8,13,13v59C117,101.7,115.7,103,114,103z"></path></g></svg>