<?xml version="1.0" encoding="iso-8859-1"?>
<!-- Generator: Adobe Illustrator 21.0.0, SVG Export Plug-In . SVG Version: 6.00 Build 0)  -->
<svg version="1.1" id="Capa_1" xmlns="http://www.w3.org/2000/svg" xmlns:xlink="http://www.w3.org/1999/xlink" x="0px" y="0px"
	 viewBox="0 0 602.672 602.672" style="enable-background:new 0 0 602.672 602.672;" xml:space="preserve">
<g>
	<g>
		<g>
			<g id="filled_outline_11_">
				<path style="fill:#87CED9;" d="M522.315,10.045H80.356c-16.644,0-30.134,13.49-30.134,30.134v251.113h502.226V40.178
					C552.449,23.534,538.959,10.045,522.315,10.045z"/>
				<path style="fill:#71C4D1;" d="M522.315,10.045H467.07L185.824,291.291h366.625V40.178
					C552.449,23.534,538.959,10.045,522.315,10.045z"/>
				<polygon style="fill:#DADDDF;" points="377.925,421.87 351.558,351.558 251.113,351.558 224.746,421.87 190.846,421.87 
					190.846,441.959 411.826,441.959 411.826,421.87 				"/>
				<path style="fill:#DADDDF;" d="M50.223,321.425c0,16.644,13.49,30.134,30.134,30.134h441.959
					c16.644,0,30.134-13.49,30.134-30.134v-30.134H50.223V321.425z"/>
				<rect x="90.401" y="472.093" style="fill:#DADDDF;" width="281.247" height="120.534"/>
				<path style="fill:#DADDDF;" d="M472.093,472.093L472.093,472.093c22.188,0,40.178,17.99,40.178,40.178v40.178
					c0,22.188-17.99,40.178-40.178,40.178l0,0c-22.188,0-40.178-17.99-40.178-40.178v-40.178
					C431.915,490.082,449.904,472.093,472.093,472.093z"/>
				<polygon style="fill:#C7CACC;" points="359.092,371.647 351.558,351.558 251.113,351.558 243.58,371.647 				"/>
				<path d="M80.356,361.603h156.263l-22.6,60.267h-23.173v20.089h220.98V421.87h-23.173l-22.6-60.267h156.263
					c22.188,0,40.178-17.99,40.178-40.178V40.178C562.493,17.99,544.504,0,522.315,0H80.356C58.168,0,40.178,17.99,40.178,40.178
					v281.247C40.178,343.613,58.168,361.603,80.356,361.603z M367.198,421.87H235.474l22.6-60.267h86.524L367.198,421.87z
					 M542.404,321.425c0,11.099-8.99,20.089-20.089,20.089H80.356c-11.099,0-20.089-8.99-20.089-20.089v-20.089h482.137V321.425z
					 M60.267,40.178c0-11.099,8.99-20.089,20.089-20.089h441.959c11.099,0,20.089,8.99,20.089,20.089v241.069H60.267V40.178z"/>
				<path d="M90.401,462.048c-5.545,0-10.045,4.5-10.045,10.045v120.534c0,5.545,4.5,10.045,10.045,10.045h281.247
					c5.545,0,10.045-4.5,10.045-10.045V472.093c0-5.545-4.5-10.045-10.045-10.045H90.401z M361.603,582.583H100.445V482.137h261.158
					V582.583z"/>
				<rect x="120.534" y="542.404" width="20.089" height="20.089"/>
				<rect x="321.425" y="542.404" width="20.089" height="20.089"/>
				<rect x="120.534" y="502.226" width="20.089" height="20.089"/>
				<rect x="160.712" y="502.226" width="20.089" height="20.089"/>
				<rect x="200.891" y="502.226" width="20.089" height="20.089"/>
				<rect x="241.069" y="502.226" width="20.089" height="20.089"/>
				<rect x="281.247" y="502.226" width="20.089" height="20.089"/>
				<rect x="321.425" y="502.226" width="20.089" height="20.089"/>
				<rect x="160.712" y="542.404" width="140.623" height="20.089"/>
				<path d="M421.87,512.271v40.178c0,27.733,22.49,50.223,50.223,50.223c27.733,0,50.223-22.49,50.223-50.223v-40.178
					c0-27.733-22.49-50.223-50.223-50.223C444.36,462.048,421.87,484.538,421.87,512.271z M502.226,512.271v40.178
					c0,16.644-13.49,30.134-30.134,30.134c-16.644,0-30.134-13.49-30.134-30.134v-40.178c0.05-12.726,8.096-24.047,20.089-28.285
					v28.285h20.089v-28.285C494.13,488.224,502.176,499.544,502.226,512.271z"/>
				
					<rect x="230.308" y="150.67" transform="matrix(0.7071 -0.7071 0.7071 0.7071 -25.3842 260.1459)" width="142.048" height="20.089"/>
				
					<rect x="228.58" y="120.533" transform="matrix(0.7071 -0.7071 0.7071 0.7071 -12.9014 230.0081)" width="85.227" height="20.089"/>
				
					<rect x="288.845" y="180.801" transform="matrix(0.7071 -0.7071 0.7071 0.7071 -37.8661 290.2741)" width="85.227" height="20.089"/>
			</g>
		</g>
	</g>
</g>
<g>
</g>
<g>
</g>
<g>
</g>
<g>
</g>
<g>
</g>
<g>
</g>
<g>
</g>
<g>
</g>
<g>
</g>
<g>
</g>
<g>
</g>
<g>
</g>
<g>
</g>
<g>
</g>
<g>
</g>
</svg>
