<svg xmlns="http://www.w3.org/2000/svg" viewBox="0 0 64 64"><path fill="#acb7d0" d="M9,5.028h4V60H9V5.028z"></path><path fill="#8d6c9f" d="M13,61H9c-0.553,0-1-0.447-1-1V5.028c0-0.553,0.447-1,1-1h4c0.553,0,1,0.447,1,1V60 C14,60.553,13.553,61,13,61z M10,59h2V6.028h-2V59z"></path><path fill="#85cbf8" d="M13,7.84V40.16c22.554-9.837,22.693,9.837,46.474,0V7.84C35.693,17.676,35.554-1.997,13,7.84z"></path><path fill="#ace3ff" d="M24.73,10c1.791,0,3.385,0.326,4.953,0.829c2.848,0.914,5.92,0.848,8.715-0.218L40,10 c-3.48-1.465-10.756-5-15.27-5l0,0C21.531,5,17.767,5.76,13,7.84l1.591,1.086c1.978,1.351,4.417,1.877,6.768,1.419 C22.543,10.114,23.663,10,24.73,10"></path><path fill="#8d6c9f" d="M47.117,44.01c-4.792,0-8.353-1.503-11.845-2.977c-5.689-2.403-11.062-4.673-21.873,0.044 c-0.308,0.135-0.665,0.105-0.947-0.08S12,40.497,12,40.16V7.84c0-0.397,0.235-0.758,0.601-0.917 C24.194,1.867,30.222,4.41,36.051,6.87c5.893,2.486,11.46,4.836,23.042,0.046c0.31-0.128,0.66-0.093,0.938,0.093 s0.444,0.497,0.444,0.831v32.32c0,0.404-0.244,0.77-0.618,0.924C54.678,43.227,50.576,44.01,47.117,44.01z M24.737,36.324 c4.524,0,7.951,1.447,11.313,2.866c5.787,2.442,11.26,4.753,22.424,0.297V9.313c-11.443,4.362-17.418,1.842-23.202-0.602 C29.69,6.355,24.409,4.127,14,8.499v30.16C18.26,36.959,21.739,36.324,24.737,36.324z"></path><path fill="#8d6c9f" d="M30.093,12.84c-0.107,0-0.217-0.018-0.324-0.054c-0.522-0.18-0.801-0.748-0.622-1.271l0.648-1.892 c0.18-0.522,0.747-0.799,1.271-0.622c0.522,0.18,0.801,0.748,0.622,1.271l-0.648,1.892C30.896,12.579,30.509,12.84,30.093,12.84z"></path><path fill="#8d6c9f" d="M25.908,11.956c-0.027,0-0.054-0.001-0.081-0.003c-0.551-0.045-0.961-0.527-0.917-1.077 l0.161-1.994c0.045-0.552,0.537-0.956,1.077-0.917c0.551,0.045,0.961,0.527,0.917,1.077l-0.161,1.994 C26.861,11.56,26.424,11.956,25.908,11.956z"></path><path fill="#8d6c9f" d="M21.655,12.183c-0.471,0-0.89-0.333-0.981-0.812l-0.375-1.965 c-0.104-0.543,0.253-1.066,0.795-1.17c0.542-0.103,1.065,0.252,1.17,0.795l0.375,1.965c0.104,0.543-0.253,1.066-0.795,1.17 C21.78,12.177,21.718,12.183,21.655,12.183z"></path><g><path fill="#faefde" d="M46.391,17.3c-0.419-0.359-1.051-0.31-1.41,0.109c-0.321,0.374-0.321,0.927,0,1.301l5.29,5.3 l-5.29,5.29c-0.419,0.359-0.468,0.991-0.109,1.41s0.991,0.468,1.41,0.109c0.039-0.034,0.076-0.07,0.109-0.109l6-6 c0.388-0.39,0.388-1.02,0-1.41L46.391,17.3z M28.391,17.3c-0.39-0.388-1.02-0.388-1.41,0l-6,6c-0.388,0.39-0.388,1.02,0,1.41l6,6 c0.419,0.359,1.051,0.31,1.41-0.109c0.321-0.374,0.321-0.927,0-1.301l-5.3-5.29l5.29-5.29c0.395-0.386,0.402-1.019,0.016-1.414 C28.395,17.304,28.393,17.302,28.391,17.3z"></path></g><g><path fill="#faefde" d="M34.001,35c-0.08,0-0.162-0.01-0.243-0.03c-0.536-0.134-0.862-0.677-0.728-1.212l5-20 c0.133-0.537,0.676-0.863,1.212-0.728c0.536,0.134,0.862,0.677,0.728,1.212l-5,20C34.856,34.697,34.449,35,34.001,35z"></path></g></svg>